/* XPM */
static char * tzipfile_xpm[] = {
"23 23 111 2",
"  	c None",
". 	c #1F1F1F",
"+ 	c #262626",
"@ 	c #3E3F3E",
"# 	c #CBCECB",
"$ 	c #B6B8B6",
"% 	c #B9BBB9",
"& 	c #EBEEEB",
"* 	c #DEDFDE",
"= 	c #A5A6A5",
"- 	c #464646",
"; 	c #A7A8A7",
"> 	c #3E3E3E",
", 	c #DFDFDF",
"' 	c #E1E3E1",
") 	c #C8C8C8",
"! 	c #9D9D9D",
"~ 	c #232323",
"{ 	c #323232",
"] 	c #5A5A5A",
"^ 	c #9A9A9A",
"/ 	c #4E4E4E",
"( 	c #202020",
"_ 	c #3F3F3F",
": 	c #4A4A4A",
"< 	c #424342",
"[ 	c #2E2E2E",
"} 	c #C4C6C4",
"| 	c #979797",
"1 	c #898989",
"2 	c #AEB0AE",
"3 	c #F8FCF8",
"4 	c #575857",
"5 	c #646464",
"6 	c #3D3D3D",
"7 	c #212121",
"8 	c #9092AE",
"9 	c #4041F8",
"0 	c #4445F8",
"a 	c #4296F8",
"b 	c #3D3EF8",
"c 	c #34343B",
"d 	c #7B7B7B",
"e 	c #282828",
"f 	c #A2A4A2",
"g 	c #787A78",
"h 	c #A7AAAE",
"i 	c #C3C6F8",
"j 	c #9193F8",
"k 	c #B1B4F8",
"l 	c #8F91F8",
"m 	c #6567F8",
"n 	c #5C7293",
"o 	c #616D6D",
"p 	c #242424",
"q 	c #747574",
"r 	c #9EA09E",
"s 	c #262726",
"t 	c #999CAE",
"u 	c #7577F8",
"v 	c #AAADF8",
"w 	c #93A0F8",
"x 	c #8491F8",
"y 	c #4B4CF8",
"z 	c #A0C4F8",
"A 	c #CCE0DD",
"B 	c #2D2D2D",
"C 	c #919291",
"D 	c #949694",
"E 	c #515151",
"F 	c #9EA1AE",
"G 	c #7C7EF8",
"H 	c #7CC6F8",
"I 	c #F2F6F8",
"J 	c #DDE0DD",
"K 	c #282928",
"L 	c #595959",
"M 	c #717371",
"N 	c #A1A4A1",
"O 	c #909290",
"P 	c #1D1D1D",
"Q 	c #D5D7D5",
"R 	c #9C9D9C",
"S 	c #414141",
"T 	c #737373",
"U 	c #7D7D7D",
"V 	c #757575",
"W 	c #565656",
"X 	c #1A1A1A",
"Y 	c #AEAEAE",
"Z 	c #7F7F7F",
"` 	c #5F5F5F",
" .	c #676767",
"..	c #D1D3D1",
"+.	c #A6A6A6",
"@.	c #8F8F8F",
"#.	c #171717",
"$.	c #5E5E5E",
"%.	c #5D5D5D",
"&.	c #303030",
"*.	c #939493",
"=.	c #666666",
"-.	c #838483",
";.	c #777777",
">.	c #767676",
",.	c #CDCFCD",
"'.	c #878887",
").	c #DADCDA",
"!.	c #818181",
"~.	c #3A3A3A",
"{.	c #1B1B1B",
"                                              ",
"                                              ",
"            . . . . . . . . . . . . +         ",
"          @ # $ $ $ $ $ $ $ % & * * = -       ",
"          @ ; >             , ' ) ) ! -       ",
"    ~ { { ] ^ / ( (           ' ) ) ! -       ",
"    _ ] ] ] : < { [           } | | 1 -       ",
"    2 3 3 3 3 3 4 5           6 6 6 6 7       ",
"    8 9 0 a a b c d e           f g 4         ",
"    h i j k l m n o p           q r s         ",
"    t u v w x y z A B           C D E         ",
"    F G G H H G I J B           K L           ",
"    M N N N N N N O P         J Q Q R S       ",
"    E T T U V W : : X         ' ) ) ! -       ",
"          { | 6               ' ) ) ! -       ",
"          { Y Z ` ` ` ` ` `  ...+.+.@.-       ",
"          #.$.$.$.$.$.$.$.$.$.%.W W W &.      ",
"                                *.=.          ",
"                -.;.>.>.>.>.>.>.,.'.          ",
"                ).!.- - - - - - - ~.          ",
"                {.                            ",
"                                              ",
"                                              "};
